<svg width="118" height="118" viewBox="0 0 118 118" fill="none" xmlns="http://www.w3.org/2000/svg">
<path d="M50.1426 59.5922C52.1199 60.8351 54.6195 60.8936 56.6528 59.7445C57.6499 59.181 58.4763 58.3585 59.0445 57.364L59.2115 57.0717C60.5994 54.6427 60.5364 51.6468 59.0476 49.2783L33.8541 9.19677C32.3636 6.82548 32.7111 3.73857 34.6916 1.75809C36.1107 0.338962 38.1452 -0.277027 40.1132 0.116567L81.4134 8.37661C84.7044 9.03482 87.727 10.6525 90.1002 13.0257L112.927 35.8522C116.335 39.26 118.136 43.9539 117.882 48.7666L116.502 74.9964C116.281 79.1903 114.516 83.1541 111.546 86.1238L86.1237 111.546C83.1541 114.516 79.1903 116.281 74.9964 116.502L48.7665 117.883C43.9539 118.136 39.2599 116.335 35.8522 112.927L13.0256 90.1003C10.6524 87.7271 9.03475 84.7045 8.37654 81.4135L0.116491 40.1132C-0.277099 38.1453 0.338883 36.1108 1.75799 34.6917C3.73848 32.7112 6.82541 32.3637 9.19669 33.8542L50.1426 59.5922Z" fill="url(#paint0_linear_1266_31)"/>
<defs>
<linearGradient id="paint0_linear_1266_31" x1="-20.3125" y1="-20.3125" x2="137.687" y2="137.687" gradientUnits="userSpaceOnUse">
<stop offset="0.264423" stop-color="#FAFAFA"/>
<stop offset="0.725962" stop-color="#CCCCCC"/>
</linearGradient>
</defs>
</svg>
